<?xml version="1.0" encoding="UTF-8" standalone="no" ?>
<!DOCTYPE svg PUBLIC "-//W3C//DTD SVG 1.1//EN" "http://www.w3.org/Graphics/SVG/1.1/DTD/svg11.dtd">
<svg xmlns="http://www.w3.org/2000/svg" xmlns:xlink="http://www.w3.org/1999/xlink" version="1.1" width="1080" height="1080" viewBox="0 0 1080 1080" xml:space="preserve">
<desc>Created with Fabric.js 5.2.4</desc>
<defs>
</defs>
<g transform="matrix(1 0 0 1 540 540)" id="e367b37e-a762-45a1-b44e-27505ad6febd"  >
<rect style="stroke: none; stroke-width: 1; stroke-dasharray: none; stroke-linecap: butt; stroke-dashoffset: 0; stroke-linejoin: miter; stroke-miterlimit: 4; fill: rgb(255,255,255); fill-rule: nonzero; opacity: 1; visibility: hidden;" vector-effect="non-scaling-stroke"  x="-540" y="-540" rx="0" ry="0" width="1080" height="1080" />
</g>
<g transform="matrix(1 0 0 1 540 540)" id="7aab4acd-2e04-4cdb-9950-afd4d70e5fde"  >
</g>
<g transform="matrix(1 0 0 1 644 447)" id="14d7e118-cf51-4a8a-ba26-fe783cbe45db"  >
<path style="stroke: rgb(0,0,0); stroke-width: 0; stroke-dasharray: none; stroke-linecap: butt; stroke-dashoffset: 0; stroke-linejoin: miter; stroke-miterlimit: 4; fill: rgb(255,255,255); fill-rule: nonzero; opacity: 1;" vector-effect="non-scaling-stroke"  transform=" translate(-256, -256.1)" d="M 351.9 329.5063 L 206.81 329.5063 L 203.7377 316.9463 L 368.1614 316.9463 L 394.7914 200.9273 L 177.5618 174.8861 L 167.60920000000002 116.79759999999999 L 117.20920000000001 116.79759999999999 L 117.20920000000001 138.74259999999998 L 149.1026 138.74259999999998 L 184.3358 329.9891 C 170.66395197997807 332.2352066015286 159.86080075571113 342.79954977099675 157.30969389985987 356.4177830249118 C 154.75858704400858 370.03601627882676 161.0053696535561 383.7943275852962 172.9371905520321 390.83677553999905 C 184.86901145050808 397.879223494702 199.9328901852999 396.6989775711096 210.62230450763664 387.88416931491764 C 221.31171882997342 379.0693610587257 225.3395186018331 364.50604234441903 220.6986 351.4513 L 320.9431 351.4513 C 316.2055580860363 364.9366935707333 320.7390007756669 379.9375414731197 332.1523508378711 388.5419347406152 C 343.56570090007534 397.14632800811074 359.23493098986006 397.3760426225325 370.8956067997163 389.1099200247499 C 382.5562826095726 380.8437974269673 387.52751447788484 365.9822902987461 383.18732168398924 352.3638149928994 C 378.84712889009364 338.7453396870527 366.19335908710286 329.5009008082666 351.9 329.5063 Z M 181.4272 197.4486 L 367.93780000000004 219.8075 L 350.6786 295.0015 L 198.9174 295.0015 Z" stroke-linecap="round" />
</g>
</svg>